<svg xmlns="http://www.w3.org/2000/svg" width="310" height="220">
  <defs>
    <linearGradient id="bg" x1="0%" y1="0%" x2="100%" y2="100%">
      <stop offset="0%" stop-color="#0f172a"/>
      <stop offset="100%" stop-color="#1e293b"/>
    </linearGradient>
    <linearGradient id="gold" x1="0%" y1="0%" x2="100%" y2="0%">
      <stop offset="0%" stop-color="#92400e"/>
      <stop offset="50%" stop-color="#f59e0b"/>
      <stop offset="100%" stop-color="#fcd34d"/>
    </linearGradient>
  </defs>
  <style>
    .l { font: 500 11px system-ui, sans-serif; fill: #64748b; letter-spacing: 0.5px; }
    .lang { font: 600 13px system-ui, sans-serif; fill: #f8fafc; }
    .cnt { font: 400 12px system-ui, sans-serif; fill: #94a3b8; }
  </style>
  <rect width="310" height="220" rx="12" fill="url(#bg)"/>
  <rect x="0" y="0" width="310" height="3" rx="12" fill="url(#gold)" opacity="0.8"/>
  <rect x="0" y="0" width="3" height="220" fill="url(#gold)" opacity="0.3"/>

  <text x="18" y="26" class="l">LANGUAGE DISTRIBUTION</text>

  <text x="18" y="54" class="lang">Python</text>
  <text x="292" y="54" class="cnt" text-anchor="end">11</text>
  <rect x="18" y="60" width="270" height="10" rx="3" fill="#1e293b"/>
  <rect x="18" y="60" width="240" height="10" rx="3" fill="#3572A5"/>

  <text x="18" y="94" class="lang">JavaScript</text>
  <text x="292" y="94" class="cnt" text-anchor="end">10</text>
  <rect x="18" y="100" width="270" height="10" rx="3" fill="#1e293b"/>
  <rect x="18" y="100" width="218" height="10" rx="3" fill="#f1e05a"/>

  <text x="18" y="134" class="lang">Shell</text>
  <text x="292" y="134" class="cnt" text-anchor="end">5</text>
  <rect x="18" y="140" width="270" height="10" rx="3" fill="#1e293b"/>
  <rect x="18" y="140" width="109" height="10" rx="3" fill="#89e051"/>

  <text x="18" y="174" class="lang">HTML</text>
  <text x="292" y="174" class="cnt" text-anchor="end">4</text>
  <rect x="18" y="180" width="270" height="10" rx="3" fill="#1e293b"/>
  <rect x="18" y="180" width="87" height="10" rx="3" fill="#e34c26"/>
</svg>