<svg xmlns="http://www.w3.org/2000/svg" width="310" height="260">
  <defs>
    <linearGradient id="bg" x1="0%" y1="0%" x2="100%" y2="100%">
      <stop offset="0%" stop-color="#0f172a"/>
      <stop offset="100%" stop-color="#1e293b"/>
    </linearGradient>
    <linearGradient id="gold" x1="0%" y1="0%" x2="100%" y2="0%">
      <stop offset="0%" stop-color="#b45309"/>
      <stop offset="50%" stop-color="#f59e0b"/>
      <stop offset="100%" stop-color="#b45309"/>
    </linearGradient>
  </defs>
  <rect width="100%" height="100%" rx="14" fill="url(#bg)"/>
  <rect x="0" y="0" width="310" height="2" fill="url(#gold)" opacity="0.6"/>
  <rect x="0" y="0" width="2" height="260" fill="url(#gold)" opacity="0.25"/>
  <text x="20" y="28" font-family="system-ui" fill="#64748b" font-size="11" letter-spacing="0.5px">LANGUAGE DISTRIBUTION</text>
  <text x="20" y="56" font-family="system-ui" fill="#f8fafc" font-size="13" font-weight="500">Python</text>
  <text x="290" y="56" font-family="system-ui" fill="#94a3b8" font-size="12" text-anchor="end">11</text>
  <rect x="20" y="60" width="220" height="22" rx="3" fill="#1e293b"/>
  <rect x="20" y="60" width="220" height="22" rx="3" fill="#3572A5"/>
  <text x="20" y="90" font-family="system-ui" fill="#f8fafc" font-size="13" font-weight="500">JavaScript</text>
  <text x="290" y="90" font-family="system-ui" fill="#94a3b8" font-size="12" text-anchor="end">10</text>
  <rect x="20" y="94" width="220" height="22" rx="3" fill="#1e293b"/>
  <rect x="20" y="94" width="200" height="22" rx="3" fill="#f1e05a"/>
  <text x="20" y="124" font-family="system-ui" fill="#f8fafc" font-size="13" font-weight="500">Shell</text>
  <text x="290" y="124" font-family="system-ui" fill="#94a3b8" font-size="12" text-anchor="end">5</text>
  <rect x="20" y="128" width="220" height="22" rx="3" fill="#1e293b"/>
  <rect x="20" y="128" width="100" height="22" rx="3" fill="#89e051"/>
  <text x="20" y="158" font-family="system-ui" fill="#f8fafc" font-size="13" font-weight="500">HTML</text>
  <text x="290" y="158" font-family="system-ui" fill="#94a3b8" font-size="12" text-anchor="end">4</text>
  <rect x="20" y="162" width="220" height="22" rx="3" fill="#1e293b"/>
  <rect x="20" y="162" width="80" height="22" rx="3" fill="#e34c26"/>
  <text x="20" y="192" font-family="system-ui" fill="#f8fafc" font-size="13" font-weight="500">PowerShell</text>
  <text x="290" y="192" font-family="system-ui" fill="#94a3b8" font-size="12" text-anchor="end">2</text>
  <rect x="20" y="196" width="220" height="22" rx="3" fill="#1e293b"/>
  <rect x="20" y="196" width="40" height="22" rx="3" fill="#8b949e"/>
  <text x="20" y="226" font-family="system-ui" fill="#f8fafc" font-size="13" font-weight="500">Batchfile</text>
  <text x="290" y="226" font-family="system-ui" fill="#94a3b8" font-size="12" text-anchor="end">2</text>
  <rect x="20" y="230" width="220" height="22" rx="3" fill="#1e293b"/>
  <rect x="20" y="230" width="40" height="22" rx="3" fill="#8b949e"/>
</svg>