<svg xmlns="http://www.w3.org/2000/svg" viewBox="0 0 400 240" width="400" height="240">
  <style>
    text { font-family: 'Segoe UI', monospace; }
  </style>
  <rect width="400" height="240" fill="#0d1117" rx="12" />
  <text x="30" y="30" fill="#c9d1d9" font-family="monospace" font-size="16" font-weight="bold">Overview</text>
  
        <text x="30" y="50" fill="#8b949e" font-family="monospace" font-size="14">Repos</text>
        <text x="300" y="50" fill="#8b949e" font-family="monospace" font-size="14" font-weight="bold" text-anchor="end">40</text>
        <rect x="30" y="58" width="270" height="3" rx="1.5" fill="#21262d" />
        <rect x="30" y="58" width="270.0" height="3" rx="1.5" fill="#8b949e" opacity="0.5" />
        
        <text x="30" y="85" fill="#8b949e" font-family="monospace" font-size="14">With Code</text>
        <text x="300" y="85" fill="#56d364" font-family="monospace" font-size="14" font-weight="bold" text-anchor="end">37</text>
        <rect x="30" y="93" width="270" height="3" rx="1.5" fill="#21262d" />
        <rect x="30" y="93" width="270.0" height="3" rx="1.5" fill="#56d364" opacity="0.5" />
        
        <text x="30" y="120" fill="#8b949e" font-family="monospace" font-size="14">Active (90d)</text>
        <text x="300" y="120" fill="#58a6ff" font-family="monospace" font-size="14" font-weight="bold" text-anchor="end">12</text>
        <rect x="30" y="128" width="270" height="3" rx="1.5" fill="#21262d" />
        <rect x="30" y="128" width="270.0" height="3" rx="1.5" fill="#58a6ff" opacity="0.5" />
        
        <text x="30" y="155" fill="#8b949e" font-family="monospace" font-size="14">Public</text>
        <text x="300" y="155" fill="#f0883e" font-family="monospace" font-size="14" font-weight="bold" text-anchor="end">7</text>
        <rect x="30" y="163" width="270" height="3" rx="1.5" fill="#21262d" />
        <rect x="30" y="163" width="270.0" height="3" rx="1.5" fill="#f0883e" opacity="0.5" />
        
        <text x="30" y="190" fill="#8b949e" font-family="monospace" font-size="14">Stars</text>
        <text x="300" y="190" fill="#d2a8ff" font-family="monospace" font-size="14" font-weight="bold" text-anchor="end">0</text>
        <rect x="30" y="198" width="270" height="3" rx="1.5" fill="#21262d" />
        <rect x="30" y="198" width="0.0" height="3" rx="1.5" fill="#d2a8ff" opacity="0.5" />
        
</svg>